<svg xmlns="http://www.w3.org/2000/svg" viewBox="0 0 720 400" font-family="-apple-system,BlinkMacSystemFont,'Segoe UI',Helvetica,Arial,sans-serif">
  <defs>
    <linearGradient id="gpuGrad" x1="0" y1="0" x2="0" y2="1">
      <stop offset="0%" stop-color="#58a6ff" stop-opacity="0.9"/>
      <stop offset="100%" stop-color="#58a6ff" stop-opacity="0.6"/>
    </linearGradient>
    <linearGradient id="cpuGrad" x1="0" y1="0" x2="0" y2="1">
      <stop offset="0%" stop-color="#8b949e" stop-opacity="0.9"/>
      <stop offset="100%" stop-color="#8b949e" stop-opacity="0.6"/>
    </linearGradient>
  </defs>
  <rect width="720" height="400" rx="12" fill="#0d1117"/>
  <text x="360" y="32" text-anchor="middle" fill="#e6edf3" font-size="15" font-weight="700">hanfei-shu v0.2.0 — GPU vs CPU Pippenger (RTX 3090)</text>
  <text x="360" y="52" text-anchor="middle" fill="#8b949e" font-size="11">Best-of-N runs, all results bit-exact. Installed from crates.io.</text>
  <text x="18" y="215" text-anchor="middle" fill="#8b949e" font-size="11" transform="rotate(-90,18,215)">Time (ms, lower is better)</text>

  <!-- Y axis: 0..7000ms, chart y=70..340, scale: 7000ms=270px → 1ms=0.0386px -->
  <line x1="70" y1="340" x2="690" y2="340" stroke="#30363d" stroke-width="1"/>
  <line x1="70" y1="301" x2="690" y2="301" stroke="#21262d" stroke-width="0.5" stroke-dasharray="4"/>
  <line x1="70" y1="262" x2="690" y2="262" stroke="#21262d" stroke-width="0.5" stroke-dasharray="4"/>
  <line x1="70" y1="224" x2="690" y2="224" stroke="#21262d" stroke-width="0.5" stroke-dasharray="4"/>
  <line x1="70" y1="185" x2="690" y2="185" stroke="#21262d" stroke-width="0.5" stroke-dasharray="4"/>
  <line x1="70" y1="147" x2="690" y2="147" stroke="#21262d" stroke-width="0.5" stroke-dasharray="4"/>
  <line x1="70" y1="108" x2="690" y2="108" stroke="#21262d" stroke-width="0.5" stroke-dasharray="4"/>
  <line x1="70" y1="70" x2="690" y2="70" stroke="#21262d" stroke-width="0.5" stroke-dasharray="4"/>
  <text x="62" y="344" text-anchor="end" fill="#8b949e" font-size="10">0</text>
  <text x="62" y="305" text-anchor="end" fill="#8b949e" font-size="10">1000</text>
  <text x="62" y="266" text-anchor="end" fill="#8b949e" font-size="10">2000</text>
  <text x="62" y="228" text-anchor="end" fill="#8b949e" font-size="10">3000</text>
  <text x="62" y="189" text-anchor="end" fill="#8b949e" font-size="10">4000</text>
  <text x="62" y="151" text-anchor="end" fill="#8b949e" font-size="10">5000</text>
  <text x="62" y="112" text-anchor="end" fill="#8b949e" font-size="10">6000</text>
  <text x="62" y="74" text-anchor="end" fill="#8b949e" font-size="10">7000</text>

  <!-- scale: 1ms = 270/7000 = 0.0386 px -->
  <!-- k=16: Pip=516, GPU=110 -->
  <rect x="115" y="320.1" width="35" height="19.9" rx="3" fill="url(#cpuGrad)"/>
  <rect x="155" y="335.8" width="35" height="4.2" rx="2" fill="url(#gpuGrad)"/>
  <text x="140" y="358" text-anchor="middle" fill="#8b949e" font-size="11">k=16</text>
  <text x="140" y="372" text-anchor="middle" fill="#3fb950" font-size="10" font-weight="600">4.71x</text>

  <!-- k=17: Pip=961, GPU=202 -->
  <rect x="225" y="302.9" width="35" height="37.1" rx="3" fill="url(#cpuGrad)"/>
  <rect x="265" y="332.2" width="35" height="7.8" rx="2" fill="url(#gpuGrad)"/>
  <text x="250" y="358" text-anchor="middle" fill="#e6edf3" font-size="11" font-weight="700">k=17</text>
  <text x="250" y="372" text-anchor="middle" fill="#3fb950" font-size="12" font-weight="700">4.75x</text>
  <text x="250" y="296" text-anchor="middle" fill="#3fb950" font-size="9">PEAK</text>

  <!-- k=18: Pip=1780, GPU=386 -->
  <rect x="335" y="271.3" width="35" height="68.7" rx="3" fill="url(#cpuGrad)"/>
  <rect x="375" y="325.1" width="35" height="14.9" rx="3" fill="url(#gpuGrad)"/>
  <text x="360" y="358" text-anchor="middle" fill="#8b949e" font-size="11">k=18</text>
  <text x="360" y="372" text-anchor="middle" fill="#3fb950" font-size="10" font-weight="600">4.61x</text>

  <!-- k=19: Pip=3453, GPU=1043 -->
  <rect x="445" y="206.7" width="35" height="133.3" rx="3" fill="url(#cpuGrad)"/>
  <rect x="485" y="299.7" width="35" height="40.3" rx="3" fill="url(#gpuGrad)"/>
  <text x="470" y="358" text-anchor="middle" fill="#8b949e" font-size="11">k=19</text>
  <text x="470" y="372" text-anchor="middle" fill="#3fb950" font-size="10" font-weight="600">3.31x</text>

  <!-- k=20: Pip=6744, GPU=1776 -->
  <rect x="555" y="79.7" width="35" height="260.3" rx="3" fill="url(#cpuGrad)"/>
  <rect x="595" y="271.4" width="35" height="68.6" rx="3" fill="url(#gpuGrad)"/>
  <text x="580" y="358" text-anchor="middle" fill="#8b949e" font-size="11">k=20</text>
  <text x="580" y="372" text-anchor="middle" fill="#3fb950" font-size="10" font-weight="600">3.80x</text>

  <!-- Legend -->
  <rect x="230" y="388" width="14" height="8" rx="2" fill="#8b949e"/>
  <text x="250" y="396" fill="#8b949e" font-size="10">CPU Pippenger (Ryzen 9 5950X, 1 thread)</text>
  <rect x="440" y="388" width="14" height="8" rx="2" fill="#58a6ff"/>
  <text x="460" y="396" fill="#58a6ff" font-size="10">GPU (hanfei-shu v0.2.0, RTX 3090)</text>
</svg>
